<?xml version="1.0" encoding="iso-8859-1"?>
<!-- Generator: Adobe Illustrator 19.0.0, SVG Export Plug-In . SVG Version: 6.00 Build 0)  -->
<svg xmlns="http://www.w3.org/2000/svg" xmlns:xlink="http://www.w3.org/1999/xlink" version="1.1" id="Layer_1" x="0px" y="0px" viewBox="0 0 511.997 511.997" style="enable-background:new 0 0 511.997 511.997;" xml:space="preserve" width="512px" height="512px">
<g>
	<g>
		<path d="M475.698,278.17c-2.217,6.826-6.605,16.499-11.593,16.962c-6.468,0.6-31.133,10.065-45.773-5.278    c-13.431-14.077-17.605-38.982-1.447-49.297c-13.571-4.418-28.055-6.816-43.1-6.816c-11.815,0-23.285,1.478-34.238,4.251    c2.332,8.458,5.278,16.733,8.267,24.979c2.697,7.441,8.939,16.985,5.063,24.753c-12.725,25.507-33.868,13.466-34.71,31.568    c-1.018,21.891,19.094,31,47.397,31c21.98,0,43.733,21.434,26.214,39.965c-6.52,6.898-16.04,10.814-21.992,18.369    c-3.113,3.952-5.28,8.444-5.527,13.538c-0.518,10.681,2.408,13.26-7.421,19.019c-7.559,4.429-9.357,10.745-10.33,18.771    c-0.737,6.081-2.115,13.913-9.578,14.595c-8.277,0.758-9.701-7.452-11.105-13.36c-2.049-8.623-6.01-16.661-9.611-24.71    c-4.388-9.806-6.341-18.769-8.113-29.208c-1.513-8.904-8.048-15.145-12.835-22.35c-5.333-8.027-1.67-16.253-5.055-24.693    c-4.233-10.549-14.617-14.622-22.476-21.674c-8.336-7.48-14.638-17.603-18.268-28.197c-9.469,18.796-14.809,40.028-14.809,62.511    c0,76.839,62.289,139.129,139.128,139.129c43.437,0,82.219-19.908,107.734-51.094c-16.275-6.018-5.313-28.648-2.682-42.083    c3.253-16.622-15.052-23.298-27.293-29.35c-7.292-3.605-12.183-10.326-12.009-18.643c0.248-11.804,10.764-24.723,22.745-25.69    c11.01-0.889,21.678,4.533,32.276,6.613c4.762,0.934,11.91,1.303,16.525-1.458C506.573,322.67,493.934,297.786,475.698,278.17z" fill="#a4a4a4"/>
	</g>
</g>
<g>
	<g>
		<path d="M0.915,0v335.198h204.477c2.244-10.056,5.389-19.907,9.443-29.49c4.922-11.638,11.048-22.601,18.311-32.798H79.902    v-33.391h184.409c12.789-10.525,26.962-19.107,42.31-25.598c13.294-5.623,27.098-9.515,41.258-11.646H79.902v-33.391h292.811    v31.478c0.357-0.002,0.713-0.013,1.071-0.013c23.276,0,45.873,4.566,67.163,13.571c3.652,1.545,7.235,3.213,10.751,4.993V0H0.915z     M155.926,116.87h-13.478l-24.523-30.348v30.348H100.97V55.13h13.217l24.783,31.391V55.13h16.956V116.87z M210.53,116.87h-44    V55.13h43.217v14.782h-26.261v8.696h22.435v13.739h-22.435v9.739h27.044V116.87z M267.917,116.87l-8.783-22.087l-8.696,22.087    h-14.087L212.177,55.13h18.349l13.391,42.348l4.261-12.87l-10-29.478h15.565l5.392,19.043l5.478-19.043h15.565l-10.174,29.478    l4.434,12.87l13.304-42.348h18.435l-24.173,61.739H267.917z M331.301,117.652c-8.957,0-19.478-2.869-26.87-7.217l7.305-14.869    c0,0,10.348,6.783,19.827,6.783c3.652,0,4.956-1.044,4.956-2.696c0-3.565-6.348-4.348-13.739-6.87    c-10.87-3.652-15.653-8.261-15.653-17.305c0.001-13.654,10.87-20.871,23.044-20.871c8.957,0,17.565,3.913,23.13,6.696l-7.305,14    c0,0-8.957-5.652-16.348-5.652c-2.956,0-4.956,0.869-4.956,3.043c0,3.218,4.348,3.913,11.479,6.174    c11.391,3.565,18.609,7.565,18.609,19.131C354.779,112.869,342.78,117.652,331.301,117.652z" fill="#a4a4a4"/>
	</g>
</g>
<g>
</g>
<g>
</g>
<g>
</g>
<g>
</g>
<g>
</g>
<g>
</g>
<g>
</g>
<g>
</g>
<g>
</g>
<g>
</g>
<g>
</g>
<g>
</g>
<g>
</g>
<g>
</g>
<g>
</g>
</svg>
