<?xml version="1.0" encoding="iso-8859-1"?>
<!-- Generator: Adobe Illustrator 19.0.0, SVG Export Plug-In . SVG Version: 6.00 Build 0)  -->
<svg xmlns="http://www.w3.org/2000/svg" xmlns:xlink="http://www.w3.org/1999/xlink" version="1.1" id="Layer_1" x="0px" y="0px" viewBox="0 0 512 512" style="enable-background:new 0 0 512 512;" xml:space="preserve" width="512px" height="512px">
<g>
	<g>
		<rect x="165.109" y="4.708" width="33.391" height="95.944" fill="#a4a4a4"/>
	</g>
</g>
<g>
	<g>
		<rect x="85.037" y="4.708" width="33.391" height="95.944" fill="#a4a4a4"/>
	</g>
</g>
<g>
	<g>
		<rect x="245.181" y="4.708" width="33.391" height="95.944" fill="#a4a4a4"/>
	</g>
</g>
<g>
	<g>
		<path d="M498.356,151.702c-18.192-18.192-47.685-18.192-65.875,0l-8.616,8.616l65.875,65.875l8.616-8.616    C516.548,199.386,516.548,169.893,498.356,151.702z" fill="#a4a4a4"/>
	</g>
</g>
<g>
	<g>
		<polygon points="254.533,340.545 234.258,415.801 309.514,395.526   " fill="#a4a4a4"/>
	</g>
</g>
<g>
	<g>
		
			<rect x="279.219" y="234.064" transform="matrix(0.7071 -0.7071 0.7071 0.7071 -90.247 343.414)" width="180.389" height="93.161" fill="#a4a4a4"/>
	</g>
</g>
<g>
	<g>
		<path d="M353.247,183.715V38.824h-41.287v95.221H51.641V38.824H0v468.468h353.247v-97.381l-5.209,5.209l-6.31,6.309l-8.616,2.321    l-54.234,14.611v0.963h-3.576l-32.358,8.717l-56.021,15.093l6.414-23.81H84.722v-33.391h117.613l12.594-46.746H84.722v-33.391    h139.203l2.384-8.85l2.321-8.615l6.31-6.309l22.971-22.971H84.722v-33.391h194.157v12.424L353.247,183.715z M84.722,198.913    v-33.391h194.157v33.391H84.722z" fill="#a4a4a4"/>
	</g>
</g>
<g>
</g>
<g>
</g>
<g>
</g>
<g>
</g>
<g>
</g>
<g>
</g>
<g>
</g>
<g>
</g>
<g>
</g>
<g>
</g>
<g>
</g>
<g>
</g>
<g>
</g>
<g>
</g>
<g>
</g>
</svg>
